<svg xmlns="http://www.w3.org/2000/svg" viewBox="0 0 385 512">
  <path d="M293.91 258.78c76.08-104.86 14.87-212.6-71.84-247.78C127.49-27.38 4.81 37.73 0 159.73V512h205.99c99.37-30.13 93.76-113.46 64.56-157.98-76.82-95.15-217.78-9.25-173.10 98.91l28.30-15.85-29.34 68.06-72.65-11.11 25.59-14.24c-34.27-65.11-15.08-156.61 59.51-200.60-102.91-43.17-109.34-223.86 44.67-244.67 84.53-11.42 191.41 99.80 110.54 207.18l15.93 12.04-56.56.10-14.79-54.49 18.91 13.82c63.40-93.55-64.42-180.60-128.85-100.41-22.56 28.08-30.50 86.01 22.96 121.31 16.93 10.82 63.78 17.66 101.76 27.19 20.14 5.05 46.18 19.75 55.54 27.30 74.71 63.05 88.48 146.91 30.58 223.43h44.81c58.26-82.93 28.79-203.56-60.43-253.22z"/>
</svg>
